<mxfile host="app.diagrams.net" agent="Mozilla/5.0 (X11; Linux x86_64; rv:128.0) Gecko/20100101 Firefox/128.0" version="25.0.3">
  <diagram name="Pagina-1" id="fLLx-5aMyhMwlgtXhYpR">
    <mxGraphModel dx="638" dy="470" grid="1" gridSize="10" guides="1" tooltips="1" connect="1" arrows="1" fold="1" page="1" pageScale="1" pageWidth="827" pageHeight="1169" math="0" shadow="0">
      <root>
        <mxCell id="0" />
        <mxCell id="1" parent="0" />
        <mxCell id="T1YvQkniaEOYH6a5uqxl-2" value="Sistema" style="shape=umlActor;verticalLabelPosition=bottom;verticalAlign=top;html=1;outlineConnect=0;" parent="1" vertex="1">
          <mxGeometry x="120" y="230" width="30" height="60" as="geometry" />
        </mxCell>
        <mxCell id="T1YvQkniaEOYH6a5uqxl-3" value="Dashboard" style="ellipse;whiteSpace=wrap;html=1;" parent="1" vertex="1">
          <mxGeometry x="230" y="225" width="110" height="70" as="geometry" />
        </mxCell>
        <mxCell id="T1YvQkniaEOYH6a5uqxl-14" value="" style="endArrow=none;html=1;rounded=0;entryX=0;entryY=0.5;entryDx=0;entryDy=0;" parent="1" target="T1YvQkniaEOYH6a5uqxl-3" edge="1">
          <mxGeometry width="50" height="50" relative="1" as="geometry">
            <mxPoint x="160" y="260" as="sourcePoint" />
            <mxPoint x="200" y="150" as="targetPoint" />
          </mxGeometry>
        </mxCell>
        <mxCell id="LUo8CljrHpAZUSjRi01z-2" value="Interfaccia Contatto" style="ellipse;whiteSpace=wrap;html=1;" parent="1" vertex="1">
          <mxGeometry x="350" y="100" width="110" height="70" as="geometry" />
        </mxCell>
        <mxCell id="LUo8CljrHpAZUSjRi01z-3" value="Lista Contatti" style="ellipse;whiteSpace=wrap;html=1;" parent="1" vertex="1">
          <mxGeometry x="414" y="225" width="110" height="70" as="geometry" />
        </mxCell>
        <mxCell id="LUo8CljrHpAZUSjRi01z-4" value="Lista Contatti Preferiti" style="ellipse;whiteSpace=wrap;html=1;" parent="1" vertex="1">
          <mxGeometry x="350" y="360" width="110" height="70" as="geometry" />
        </mxCell>
        <mxCell id="LUo8CljrHpAZUSjRi01z-5" value="Interfaccia Modifica Contatto" style="ellipse;whiteSpace=wrap;html=1;" parent="1" vertex="1">
          <mxGeometry x="560" y="100" width="110" height="70" as="geometry" />
        </mxCell>
        <mxCell id="LUo8CljrHpAZUSjRi01z-7" value="" style="endArrow=classic;html=1;rounded=0;entryX=0;entryY=1;entryDx=0;entryDy=0;exitX=0.909;exitY=0.184;exitDx=0;exitDy=0;exitPerimeter=0;" parent="1" source="T1YvQkniaEOYH6a5uqxl-3" target="LUo8CljrHpAZUSjRi01z-2" edge="1">
          <mxGeometry width="50" height="50" relative="1" as="geometry">
            <mxPoint x="340" y="360" as="sourcePoint" />
            <mxPoint x="390" y="310" as="targetPoint" />
          </mxGeometry>
        </mxCell>
        <mxCell id="LUo8CljrHpAZUSjRi01z-16" value="Include" style="edgeLabel;html=1;align=center;verticalAlign=middle;resizable=0;points=[];" parent="LUo8CljrHpAZUSjRi01z-7" vertex="1" connectable="0">
          <mxGeometry x="-0.1161" relative="1" as="geometry">
            <mxPoint as="offset" />
          </mxGeometry>
        </mxCell>
        <mxCell id="LUo8CljrHpAZUSjRi01z-10" value="" style="endArrow=classic;html=1;rounded=0;entryX=0;entryY=0;entryDx=0;entryDy=0;exitX=1;exitY=1;exitDx=0;exitDy=0;" parent="1" source="T1YvQkniaEOYH6a5uqxl-3" target="LUo8CljrHpAZUSjRi01z-4" edge="1">
          <mxGeometry width="50" height="50" relative="1" as="geometry">
            <mxPoint x="340" y="248" as="sourcePoint" />
            <mxPoint x="376" y="200" as="targetPoint" />
          </mxGeometry>
        </mxCell>
        <mxCell id="LUo8CljrHpAZUSjRi01z-17" value="Include" style="edgeLabel;html=1;align=center;verticalAlign=middle;resizable=0;points=[];" parent="LUo8CljrHpAZUSjRi01z-10" vertex="1" connectable="0">
          <mxGeometry x="-0.0138" relative="1" as="geometry">
            <mxPoint as="offset" />
          </mxGeometry>
        </mxCell>
        <mxCell id="LUo8CljrHpAZUSjRi01z-11" value="" style="endArrow=classic;html=1;rounded=0;entryX=0;entryY=0.5;entryDx=0;entryDy=0;exitX=1;exitY=0.5;exitDx=0;exitDy=0;" parent="1" source="T1YvQkniaEOYH6a5uqxl-3" target="LUo8CljrHpAZUSjRi01z-3" edge="1">
          <mxGeometry width="50" height="50" relative="1" as="geometry">
            <mxPoint x="350" y="258" as="sourcePoint" />
            <mxPoint x="386" y="210" as="targetPoint" />
          </mxGeometry>
        </mxCell>
        <mxCell id="LUo8CljrHpAZUSjRi01z-15" value="Include" style="edgeLabel;html=1;align=center;verticalAlign=middle;resizable=0;points=[];" parent="LUo8CljrHpAZUSjRi01z-11" vertex="1" connectable="0">
          <mxGeometry x="-0.0307" relative="1" as="geometry">
            <mxPoint as="offset" />
          </mxGeometry>
        </mxCell>
        <mxCell id="LUo8CljrHpAZUSjRi01z-12" value="" style="endArrow=classic;html=1;rounded=0;entryX=1;entryY=0.5;entryDx=0;entryDy=0;exitX=0;exitY=0.5;exitDx=0;exitDy=0;" parent="1" source="LUo8CljrHpAZUSjRi01z-5" target="LUo8CljrHpAZUSjRi01z-2" edge="1">
          <mxGeometry width="50" height="50" relative="1" as="geometry">
            <mxPoint x="360" y="268" as="sourcePoint" />
            <mxPoint x="396" y="220" as="targetPoint" />
          </mxGeometry>
        </mxCell>
        <mxCell id="LUo8CljrHpAZUSjRi01z-18" value="Extend" style="edgeLabel;html=1;align=center;verticalAlign=middle;resizable=0;points=[];" parent="LUo8CljrHpAZUSjRi01z-12" vertex="1" connectable="0">
          <mxGeometry x="-0.1309" relative="1" as="geometry">
            <mxPoint as="offset" />
          </mxGeometry>
        </mxCell>
      </root>
    </mxGraphModel>
  </diagram>
</mxfile>
